<svg width="64" height="53" viewBox="0 0 64 53" fill="none" xmlns="http://www.w3.org/2000/svg">
<g clip-path="url(#clip0)">
<path d="M64 24.6313C63.968 25.0603 63.9366 25.4898 63.9033 25.9187C63.7348 28.0912 62.5933 29.6554 60.7941 30.7906C59.7923 31.4223 58.6971 31.7602 57.4949 31.7635C54.4268 31.7719 51.358 31.8161 48.29 31.8213C41.9572 31.8311 35.6245 31.8298 29.2911 31.8226C21.4348 31.8142 13.5784 31.8057 5.72277 31.7628C5.20686 31.7602 4.67396 31.51 4.18155 31.2995C2.15967 30.4339 0.834612 28.9425 0.254694 26.8207C0.173061 26.5218 0.147592 26.202 0.138449 25.8908C0.0979592 24.5703 0.074449 23.2498 0.0411429 21.9293C0.0372245 21.7688 0.0143673 21.6082 0 21.4477C0 17.765 0 14.0823 0 10.3996C0.0143673 10.2501 0.0372245 10.1007 0.0411429 9.95054C0.0698775 8.74961 0.128 7.54803 0.11298 6.34711C0.0927347 4.68933 0.746449 3.3175 1.83771 2.12827C2.77551 1.1054 3.89551 0.347021 5.30743 0.163763C6.0271 0.070184 6.7618 0.0779823 7.48996 0.0734333C10.5352 0.0545876 13.5811 0.0480891 16.6263 0.035092C16.7438 0.0344422 16.8614 0.0123472 16.9789 0C17.3923 0 17.8064 0 18.2198 0C18.3484 0.0123472 18.4771 0.035092 18.6057 0.035092C26.0166 0.0422404 33.4282 0.0480891 40.8392 0.0532879C46.7709 0.057187 52.702 0.0604363 58.6331 0.0669348C58.7722 0.0669348 58.9198 0.0688843 59.0485 0.113724C61.2539 0.886398 62.8284 2.31607 63.6891 4.50478C63.8589 4.93563 63.9575 5.35673 63.953 5.82268C63.9393 7.15487 63.9562 8.48707 63.9654 9.81862C63.9667 10.0116 63.9882 10.2053 64.0006 10.3983C64 15.1429 64 19.8868 64 24.6313ZM2.64229 18.5045C22.2478 18.5045 41.8083 18.5045 61.3864 18.5045C61.3864 18.4045 61.3864 18.3291 61.3864 18.2543C61.3845 15.4385 61.3936 12.6227 61.3747 9.80692C61.3662 8.52996 61.3309 7.25105 61.2552 5.97669C61.1729 4.58991 59.4841 2.57861 57.6248 2.66894C57.0279 2.69754 56.4277 2.67089 55.8295 2.67089C41.7358 2.66634 27.6428 2.6553 13.5491 2.66374C11.0472 2.66504 8.54465 2.72873 6.04343 2.80151C4.61714 2.8431 3.13665 4.10642 2.87804 5.5036C2.7409 6.24378 2.69322 7.00931 2.68669 7.76378C2.65665 11.2294 2.65535 14.6951 2.64359 18.1608C2.64229 18.2667 2.64229 18.3733 2.64229 18.5045ZM61.2591 21.2027C61.1167 21.2027 60.9554 21.2027 60.7941 21.2027C58.541 21.2001 56.2886 21.1962 54.0356 21.1949C39.8877 21.1878 25.7391 21.1774 11.5912 21.1787C8.84898 21.1787 6.10677 21.2248 3.36457 21.2541C3.14188 21.2567 2.91984 21.2931 2.72 21.3119C2.72 22.7136 2.71739 24.0653 2.72131 25.417C2.72392 26.282 3.07135 27.0209 3.62449 27.6597C4.42514 28.5837 5.39886 29.1225 6.68147 29.1186C16.4656 29.09 26.2491 29.0835 36.0333 29.0718C43.2594 29.0627 50.4862 29.0497 57.7123 29.0588C58.2955 29.0594 58.7971 28.9269 59.2777 28.6279C60.3011 27.9911 61.1246 27.1294 61.2271 25.9272C61.359 24.3805 61.2591 22.8144 61.2591 21.2027Z" fill="#345BA6"/>
<path d="M21.33 34.5027C22.452 34.5176 23.0149 35.4209 22.546 36.3736C22.4794 36.5088 22.4043 36.6452 22.3063 36.759C21.4698 37.7285 21.3267 38.8612 21.6663 40.0271C22.0588 41.3742 22.5584 42.6908 23.0273 44.0152C23.4387 45.1778 23.9005 46.3267 24.0017 47.5718C24.0899 48.6584 24.0611 49.7358 23.6471 50.7691C23.363 51.4768 22.9333 52.087 22.3423 52.5653C22.115 52.7492 21.8237 52.8941 21.539 52.9585C21.0681 53.0637 20.6469 52.9013 20.3759 52.4873C20.0755 52.0279 20.0585 51.5307 20.2877 51.0336C20.3459 50.9075 20.4301 50.7867 20.5261 50.6866C21.4946 49.6819 21.5854 48.4628 21.236 47.2281C20.8128 45.7321 20.2361 44.2797 19.7627 42.7974C19.444 41.8005 19.1037 40.7978 18.9235 39.7717C18.6087 37.9774 19.0717 36.3599 20.3348 35.0011C20.6208 34.6937 20.9401 34.4708 21.33 34.5027Z" fill="#345BA6"/>
<path d="M41.3177 51.6561C41.4425 51.3663 41.498 51.0108 41.703 50.797C42.8152 49.6351 42.8309 48.2808 42.3953 46.8843C41.9283 45.3896 41.3739 43.9209 40.8436 42.4464C40.3976 41.2059 40.0867 39.9471 40.1011 38.6155C40.1167 37.1709 40.6967 35.9745 41.658 34.94C42.1765 34.3818 42.9249 34.3174 43.4454 34.7437C44.0371 35.2285 44.1762 35.9979 43.655 36.5874C42.6336 37.7428 42.5879 39.0347 43.0157 40.3929C43.4278 41.701 43.9117 42.9871 44.3688 44.281C44.7731 45.4247 45.1479 46.5743 45.2831 47.7876C45.4647 49.4207 45.0121 50.8718 44.0038 52.1533C43.8137 52.395 43.559 52.6004 43.2998 52.7719C42.9047 53.0338 42.4658 53.091 42.0367 52.8395C41.6025 52.5848 41.3445 52.2196 41.4 51.6873C41.3732 51.6763 41.3458 51.6659 41.3177 51.6561Z" fill="#345BA6"/>
<path d="M34.7006 48.3783C34.7032 49.8755 34.2448 51.0882 33.386 52.152C33.2116 52.3684 32.9942 52.5614 32.7656 52.7206C32.1974 53.1157 31.6142 53.0787 31.1571 52.6504C30.7156 52.2371 30.6196 51.5229 30.9403 50.9822C31.0174 50.8523 31.1036 50.7236 31.2074 50.6151C31.9982 49.7963 32.1805 48.7844 31.9467 47.7466C31.6894 46.6029 31.2831 45.491 30.9214 44.3713C30.5191 43.1275 30.0254 41.9084 29.6995 40.6457C29.384 39.4233 29.3298 38.1568 29.7765 36.9337C30.0541 36.1754 30.4864 35.4982 31.0487 34.912C31.5176 34.4234 32.2771 34.3571 32.8355 34.7392C33.3292 35.0771 33.4702 35.7094 33.1836 36.3378C33.1215 36.4743 33.0484 36.6134 32.9517 36.7271C32.1001 37.7259 31.9421 38.8684 32.3085 40.081C32.6618 41.2488 33.0667 42.4016 33.4794 43.5505C33.9627 44.8951 34.4616 46.2331 34.6444 47.6596C34.6804 47.9377 34.6889 48.2197 34.7006 48.3783Z" fill="#345BA6"/>
<path d="M42.5829 10.4906C42.5829 11.8755 42.5816 13.2603 42.5836 14.6458C42.5842 15.1852 42.3237 15.5465 41.8339 15.7525C41.3297 15.965 40.8321 15.8701 40.469 15.5185C40.2554 15.3119 40.1418 14.933 40.1124 14.6198C40.0419 13.8562 40.0229 13.0855 40.0269 12.318C40.0373 10.3918 40.0504 8.46568 40.1078 6.54082C40.1353 5.61283 40.8301 5.11049 41.6602 5.32689C42.2244 5.47441 42.6404 6.01184 42.6404 6.59411C42.6404 7.89316 42.6404 9.19156 42.6404 10.4906C42.6221 10.49 42.6025 10.49 42.5829 10.4906Z" fill="#345BA6"/>
<path d="M26.5836 10.5075C26.5836 11.8923 26.5829 13.2771 26.5842 14.6626C26.5849 15.2059 26.3099 15.5594 25.8208 15.7583C25.316 15.9636 24.817 15.8642 24.4585 15.5061C24.2476 15.2956 24.1398 14.9154 24.113 14.6009C24.0451 13.8042 24.0249 13.0016 24.0288 12.2016C24.0379 10.3301 24.0562 8.45783 24.1045 6.58626C24.1261 5.7473 24.4526 5.40808 25.1971 5.29305C25.892 5.18518 26.643 5.81878 26.643 6.51283C26.643 7.84437 26.643 9.17527 26.643 10.5068C26.6234 10.5075 26.6038 10.5075 26.5836 10.5075Z" fill="#345BA6"/>
<path d="M10.5843 10.6315C10.5843 11.9735 10.5823 13.3148 10.585 14.6567C10.5863 15.2 10.3146 15.5548 9.82544 15.7556C9.32063 15.9636 8.82234 15.8641 8.4625 15.5087C8.25026 15.2988 8.14512 14.9205 8.11246 14.6054C8.04259 13.9289 8.02691 13.2446 8.03083 12.5635C8.04193 10.5724 8.06805 8.58123 8.09875 6.59073C8.10854 5.97532 8.35018 5.52303 9.00063 5.32482C9.6576 5.12467 10.4145 5.50873 10.5138 6.19042C10.5954 6.7558 10.6202 7.33221 10.632 7.90408C10.6503 8.81323 10.6372 9.72237 10.6372 10.6315C10.6196 10.6315 10.6019 10.6315 10.5843 10.6315Z" fill="#345BA6"/>
<path d="M34.608 10.4314C34.608 11.7409 34.6158 13.0503 34.6034 14.3598C34.5995 14.7666 34.5949 15.187 34.2357 15.4938C33.8524 15.8213 33.4266 15.9584 32.9381 15.7966C32.4646 15.6393 32.1662 15.3053 32.1061 14.8108C32.0525 14.3715 32.0251 13.9263 32.0264 13.4838C32.0316 11.3198 32.0486 9.15512 32.0662 6.99111C32.0682 6.77601 32.1159 6.56156 32.1263 6.34581C32.1766 5.29564 33.4945 5.0305 34.0992 5.54129C34.4408 5.82982 34.668 6.12811 34.6504 6.63304C34.6067 7.89765 34.636 9.16487 34.636 10.4314C34.6269 10.4314 34.6171 10.4314 34.608 10.4314Z" fill="#345BA6"/>
<path d="M50.6119 10.4073C50.6119 11.6518 50.6125 12.8963 50.6106 14.1407C50.6106 14.3025 50.5884 14.465 50.5903 14.6268C50.6014 15.6692 49.4736 16.1228 48.656 15.6705C48.321 15.4853 48.1695 15.2084 48.1368 14.8627C48.0819 14.2928 48.0271 13.7196 48.0264 13.1477C48.0251 11.1352 48.0441 9.12256 48.0623 7.10997C48.065 6.84093 48.0943 6.56994 48.1335 6.30285C48.2504 5.50029 49.1236 5.02849 49.8504 5.40216C50.3232 5.6452 50.6687 5.97403 50.6459 6.60829C50.6014 7.8729 50.6328 9.14011 50.6328 10.406C50.6256 10.4073 50.6191 10.4073 50.6119 10.4073Z" fill="#345BA6"/>
<path d="M18.6114 10.4224C18.6114 11.7221 18.6199 13.0218 18.6048 14.3215C18.6016 14.6198 18.5689 14.9369 18.4592 15.2099C18.2842 15.6479 17.6527 15.9234 17.1668 15.8409C16.5301 15.7323 16.1924 15.4425 16.1408 14.8427C16.069 14.0024 16.0246 13.157 16.0213 12.3141C16.0154 10.5706 16.0429 8.82702 16.0618 7.08346C16.0644 6.84627 16.1056 6.60972 16.1206 6.37252C16.1545 5.83705 16.4661 5.53487 16.9493 5.3633C17.4182 5.19694 17.8238 5.30092 18.1888 5.6187C18.4951 5.88449 18.6656 6.17432 18.6519 6.62207C18.6127 7.88798 18.6381 9.15649 18.6381 10.4237C18.6303 10.4224 18.6205 10.4224 18.6114 10.4224Z" fill="#345BA6"/>
<path d="M57.3634 13.2505C58.0452 13.2557 58.646 13.8685 58.6401 14.5522C58.6342 15.2651 58.0256 15.8714 57.3301 15.8564C56.6417 15.8421 56.0083 15.202 56.0207 14.5333C56.0337 13.8503 56.6666 13.2453 57.3634 13.2505Z" fill="#345BA6"/>
<path d="M32.041 23.8879C40.5073 23.8879 48.9729 23.8879 57.4392 23.8879C58.106 23.8879 58.633 24.4513 58.6363 25.1668C58.6395 25.9108 58.2059 26.3716 57.4673 26.3787C53.9532 26.4132 50.4384 26.4587 46.9243 26.4691C39.3181 26.4912 31.7118 26.5113 24.1063 26.4983C18.3287 26.4886 12.551 26.4262 6.7734 26.3846C5.9525 26.3787 5.66385 26.2059 5.47185 25.6275C5.2694 25.0173 5.48622 24.3636 6.0485 23.9697C6.15038 23.8983 6.31299 23.8918 6.44752 23.8911C9.98385 23.8872 13.5208 23.8879 17.0572 23.8879C22.0518 23.8879 27.0464 23.8879 32.041 23.8879Z" fill="#345BA6"/>
</g>
<defs>
<clipPath id="clip0">
<rect width="64" height="53" fill="white"/>
</clipPath>
</defs>
</svg>
