<svg width="101" height="104" viewBox="0 0 101 104" fill="none" xmlns="http://www.w3.org/2000/svg">
<g opacity="0.2">
<mask id="mask0" mask-type="alpha" maskUnits="userSpaceOnUse" x="0" y="0" width="102" height="104">
<path d="M25.2497 0.966064C39.1373 0.966064 50.4998 12.3069 50.4998 26.168C50.4998 30.3347 48.888 34.5854 46.8175 39.294C44.6251 44.1929 42.1666 48.9688 39.4529 53.6003C36.0762 59.38 32.4782 65.028 28.6669 70.5318L25.2497 75.5218L21.8283 70.5318C21.8283 70.5318 16.4038 62.8242 11.0466 53.6045C8.33273 48.9716 5.87421 44.1943 3.68195 39.294C1.61143 34.5854 -0.000358582 30.3347 -0.000358582 26.168C-0.000358582 12.3069 11.3622 0.966064 25.2497 0.966064ZM67.4637 9.10629L101 23.4126V104L67.2028 89.4333L33.536 102.034L-0.000358582 87.7237V51.1053C2.60891 56.0289 5.41677 60.845 8.41634 65.5418V82.2129L29.4581 91.1386V84.3131L35.6401 75.3874C36.2966 74.4339 37.071 73.304 37.8748 72.1027V91.5292L63.1249 82.0785V19.6071L58.5209 21.3166C58.1284 18.5189 57.3774 15.7831 56.2863 13.1764L67.4637 9.10629ZM25.2497 9.36671C15.9114 9.36671 8.41634 16.8475 8.41634 26.168C8.41634 27.7935 9.43475 31.6284 11.3117 35.8833C13.1844 40.1299 15.8315 44.956 18.4112 49.4C21.8452 55.3056 23.3265 57.4058 25.2497 60.2956C27.1729 57.4058 28.6543 55.3056 32.0883 49.4C34.668 44.956 37.3151 40.1299 39.192 35.8791C41.0647 31.6368 42.0831 27.7935 42.0831 26.168C42.0831 16.8475 34.5881 9.36671 25.2497 9.36671ZM71.5416 19.8675V82.2171L92.5833 91.1428V28.9234L71.5416 19.8675ZM25.2497 19.8675C26.9239 19.8675 28.5295 20.5313 29.7134 21.7129C30.8972 22.8945 31.5623 24.497 31.5623 26.168C31.5623 27.839 30.8972 29.4415 29.7134 30.6231C28.5295 31.8047 26.9239 32.4685 25.2497 32.4685C23.5755 32.4685 21.9699 31.8047 20.7861 30.6231C19.6023 29.4415 18.9372 27.839 18.9372 26.168C18.9372 24.497 19.6023 22.8945 20.7861 21.7129C21.9699 20.5313 23.5755 19.8675 25.2497 19.8675Z" fill="black"/>
</mask>
<g mask="url(#mask0)">
<rect x="-167.819" y="-177.565" width="257.585" height="268.43" fill="white"/>
</g>
</g>
</svg>
