<svg width="62" height="64" viewBox="0 0 62 64" fill="none" xmlns="http://www.w3.org/2000/svg">
<g clip-path="url(#clip0)">
<path d="M49.0727 0C49.1357 0.107358 49.188 0.221687 49.263 0.319983C51.9794 3.89417 54.6965 7.46905 57.4214 11.0377C57.6003 11.2726 57.6816 11.5019 57.6816 11.7975C57.6753 28.0692 57.676 44.3403 57.676 60.612C57.676 60.7723 57.676 60.9334 57.676 61.1453C59.1364 61.1453 60.5685 61.1453 62.0006 61.1453C62.0006 62.0969 62.0006 63.0491 62.0006 64.0007C60.3768 63.9952 58.7524 63.9882 57.1286 63.984C56.3655 63.9819 55.6024 63.9833 54.7913 63.9833C54.7913 63.7958 54.7913 63.6382 54.7913 63.48C54.7913 46.2337 54.792 28.9874 54.7828 11.7411C54.7828 11.5417 54.7128 11.2991 54.5869 11.1485C52.321 8.44852 50.0423 5.75899 47.7665 3.06737C47.7071 2.99696 47.642 2.93143 47.5657 2.84847C46.2736 3.38457 44.9865 3.91927 43.7 4.45327C35.978 7.66007 28.2566 10.8676 20.5324 14.0674C20.27 14.1761 20.164 14.2974 20.1689 14.5916C20.1894 15.7865 20.1859 16.9821 20.1682 18.1777C20.1654 18.3499 20.0826 18.5632 19.9617 18.6859C19.1668 19.4939 18.3514 20.2823 17.5416 21.0763C17.478 21.1391 17.4086 21.1969 17.2849 21.3078C17.2849 21.1314 17.2849 21.0213 17.2849 20.9118C17.2849 18.3352 17.292 15.7586 17.2764 13.1827C17.2743 12.8718 17.3811 12.7491 17.6597 12.6376C27.9405 8.50011 38.2184 4.35497 48.4964 0.209836C48.6456 0.149883 48.7863 0.0704101 48.9313 0C48.9787 0 49.0254 0 49.0727 0Z" fill="#345BA6"/>
<path d="M40.3682 61.1285C41.8187 61.1285 43.2282 61.1285 44.6645 61.1285C44.6645 62.0836 44.6645 63.0142 44.6645 63.9637C42.2819 63.9637 39.9092 63.9637 37.4828 63.9637C37.4828 63.8111 37.4828 63.666 37.4828 63.5203C37.4722 51.6475 37.4608 39.774 37.4587 27.9012C37.4587 27.5784 37.3689 27.3797 37.0959 27.1873C34.434 25.3128 31.7819 23.4249 29.1334 21.5329C28.9212 21.3816 28.7557 21.3454 28.5019 21.4527C22.004 24.2106 15.5026 26.9608 8.9969 29.7012C8.71119 29.8218 8.62349 29.9612 8.62349 30.261C8.63198 41.3335 8.63057 52.4053 8.63057 63.4778C8.63057 63.6375 8.63057 63.7971 8.63057 63.9735C5.7317 63.9735 2.87668 63.9735 -0.000976562 63.9735C-0.000976562 63.0386 -0.000976562 62.1163 -0.000976562 61.1599C1.89577 61.1599 3.79676 61.1599 5.75362 61.1599C5.75362 60.9695 5.75362 60.8127 5.75362 60.6551C5.75362 50.0818 5.75574 39.5091 5.74372 28.9357C5.74301 28.5558 5.84768 28.3808 6.20907 28.2254C13.6334 25.0395 21.0514 21.8397 28.4658 18.6322C28.743 18.5123 28.9226 18.5429 29.156 18.7165C32.7932 21.4179 36.4361 24.1116 40.0839 26.799C40.2975 26.9566 40.3731 27.1155 40.3731 27.3749C40.3668 38.4585 40.3675 49.5429 40.3675 60.6266C40.3682 60.7869 40.3682 60.9458 40.3682 61.1285Z" fill="#345BA6"/>
<path d="M51.8977 63.9826C50.4402 63.9826 49.0413 63.9826 47.6113 63.9826C47.6113 45.0576 47.6113 26.1424 47.6113 7.17627C47.6969 7.2669 47.7598 7.32685 47.8157 7.39238C49.0944 8.87936 50.3695 10.3691 51.6531 11.8519C51.8214 12.0464 51.9034 12.2395 51.9034 12.5037C51.897 29.5283 51.8977 46.5522 51.8977 63.5769C51.8977 63.7016 51.8977 63.8264 51.8977 63.9826Z" fill="#345BA6"/>
<path d="M33.1544 63.9659C31.6926 63.9659 30.2853 63.9659 28.8496 63.9659C28.8496 51.1924 28.8496 38.4349 28.8496 25.6377C28.955 25.6949 29.0448 25.736 29.1268 25.7897C30.3807 26.6123 31.6297 27.4419 32.8892 28.2547C33.0943 28.3872 33.1594 28.5308 33.1587 28.7629C33.1537 40.3687 33.1544 51.9746 33.1544 63.5797C33.1544 63.6947 33.1544 63.809 33.1544 63.9659Z" fill="#345BA6"/>
<path d="M23.0459 54.0624C23.0459 56.4215 23.0459 58.761 23.0459 61.1222C19.6944 61.1222 16.3585 61.1222 12.9985 61.1222C12.9886 61.0546 12.9688 60.9786 12.9688 60.9026C12.9667 59.6499 12.9702 58.3971 12.9639 57.1444C12.9632 56.959 13.0007 56.8621 13.2093 56.8042C16.3967 55.9147 19.5806 55.014 22.7659 54.1168C22.8536 54.0917 22.9448 54.0819 23.0459 54.0624Z" fill="#345BA6"/>
<path d="M23.0462 29.8866C23.0525 30.0072 23.0603 30.0964 23.0603 30.185C23.061 31.8671 23.0568 33.5486 23.0653 35.2308C23.0667 35.456 23.0129 35.578 22.7838 35.6735C19.607 37.0071 16.4358 38.3525 13.2626 39.6938C13.1791 39.7294 13.09 39.7531 12.9839 39.7893C12.9754 39.684 12.9641 39.6053 12.9634 39.5265C12.9422 37.8799 12.9252 36.2326 12.8976 34.5859C12.8941 34.3761 12.9408 34.2611 13.1544 34.1691C16.3496 32.7887 19.5398 31.3966 22.7315 30.0086C22.8255 29.9668 22.9231 29.934 23.0462 29.8866Z" fill="#345BA6"/>
<path d="M12.9024 51.1874C12.9024 49.4258 12.906 47.722 12.8975 46.0182C12.8968 45.807 13.0198 45.7812 13.1726 45.7338C16.1407 44.8122 19.1082 43.8871 22.0757 42.9634C22.3861 42.8665 22.6966 42.7731 23.0354 42.6692C23.046 42.7961 23.0601 42.8846 23.0601 42.9724C23.0615 44.6658 23.0587 46.3591 23.0644 48.0531C23.0651 48.2539 23.0212 48.3592 22.8013 48.4205C19.5927 49.3149 16.3876 50.2198 13.1811 51.1219C13.1266 51.1379 13.07 51.1484 12.9024 51.1874Z" fill="#345BA6"/>
</g>
<defs>
<clipPath id="clip0">
<rect width="62" height="64" fill="white"/>
</clipPath>
</defs>
</svg>
