<svg width="61" height="56" viewBox="0 0 61 56" fill="none" xmlns="http://www.w3.org/2000/svg">
<path d="M38.7111 0.162155C37.8163 0.493046 37.1215 1.2962 36.9332 2.25307C36.8741 2.50125 36.7683 2.57224 36.2501 2.70188C35.2378 2.92659 33.9897 3.62357 33.1184 4.42672L32.3177 5.17061L31.2697 4.65081C30.6808 4.36746 29.8094 4.03656 29.3269 3.91865C28.6438 3.7532 28.4321 3.64703 28.4087 3.46985C28.3854 3.35194 28.2321 2.97413 28.0789 2.65496C27.549 1.58018 26.6309 1.17829 24.7465 1.17829C23.6401 1.17829 22.792 1.39065 22.2505 1.79254C21.8499 2.11108 21.3791 2.87906 21.2733 3.43404C21.2142 3.69394 21.12 3.75321 20.5317 3.85939C18.9655 4.15448 17.5058 4.93417 16.2929 6.13921C14.4559 7.94616 13.1254 10.8878 12.8781 13.6868C12.8073 14.5134 12.7956 14.5609 12.4424 14.7029C11.0885 15.2814 10.2996 17.1241 10.3937 19.4984L10.4288 20.3725L11.9593 20.6676L13.4781 20.9744L13.6073 21.4942C13.7365 21.9906 13.7131 22.0727 13.3956 22.6635C12.4774 24.2939 13.1131 27.5182 14.5968 28.8412C15.115 29.3017 15.2092 29.4554 15.4916 30.4123C15.9039 31.7822 16.6338 33.2823 17.3637 34.2509L17.9409 35.0065L17.8584 37.0264C17.776 38.8451 17.7409 39.0816 17.4935 39.5186C16.9046 40.5224 15.4215 41.3848 11.4885 42.9911C7.33212 44.6919 5.60102 45.684 3.90561 47.3613C1.98681 49.2392 1.10372 51.3653 0.773869 54.8261L0.691406 55.6293H24.9115C47.9186 55.6293 49.1198 55.6175 49.0607 55.4169C49.0374 55.3107 48.9783 54.7909 48.9315 54.2711C48.814 52.7358 48.5075 51.59 47.7303 49.7473C47.6835 49.6411 49.0491 49.6053 54.3359 49.6053C58.8689 49.6053 61 49.5701 61 49.4874C61 49.4164 60.9409 48.8497 60.8825 48.212C60.6351 45.9679 60.0584 44.4203 58.8923 42.956C57.4676 41.1607 55.7015 39.9674 52.11 38.3852C48.6484 36.8499 47.1764 35.9165 46.7998 34.9954C46.6823 34.7355 46.6349 34.0978 46.6349 33.0582V31.5111L47.0355 30.9562C47.2472 30.6611 47.5887 30.0937 47.7887 29.7042C48.1303 28.9955 48.7543 27.2713 48.7543 26.9996C48.7543 26.9169 48.9075 26.7397 49.0958 26.5984C49.8848 26.0193 50.3912 24.9921 50.638 23.4802C50.7672 22.6061 50.6497 21.6967 50.3082 21.0473C50.1081 20.6571 50.1081 20.6102 50.3549 19.6181C50.6023 18.6261 50.6257 18.6026 51.0023 18.5199C51.2263 18.4724 51.9562 18.3193 52.6153 18.1773L53.8399 17.9057L53.7574 16.7247C53.6042 14.2918 53.0983 13.2639 51.7556 12.5787C51.5906 12.4959 51.5082 12.3188 51.4848 11.9879C51.3789 10.4995 50.79 8.49127 50.0485 7.1214C48.7887 4.78292 47.1992 3.41244 44.9856 2.763C44.1376 2.51483 44.1025 2.49137 44.0201 2.07775C43.8434 1.21534 43.0194 0.353531 42.1597 0.117088C41.5486 -0.0619392 39.2409 -0.0267525 38.7111 0.162155ZM41.6902 6.90656C41.7493 10.8989 41.7726 11.3008 41.9609 11.5959C42.3142 12.1157 43.1505 12.2453 43.5979 11.844C44.1161 11.3952 44.1628 11.0291 44.1628 7.96962C44.1628 5.73733 44.1979 5.07554 44.3161 5.07554C44.3868 5.07554 44.7991 5.24099 45.2108 5.42989C46.3647 5.97315 47.3186 7.02448 48.0367 8.5246C48.7075 9.93028 48.9783 10.9223 49.1198 12.5521C49.2497 14.0874 49.4731 14.3949 50.7919 14.8079C51.0159 14.8789 51.2275 15.3394 51.2275 15.753C51.2275 16.0129 51.1451 16.0481 49.6146 16.2845C47.3069 16.6389 46.0115 16.7568 42.868 16.8871C38.6883 17.0525 39.1474 17.1111 38.8175 16.379C38.4994 15.6586 37.8286 14.9498 37.2636 14.7369C36.887 14.6072 36.8747 14.5714 36.8046 13.8275C36.6046 11.7841 35.615 8.98452 34.5676 7.55539C34.3442 7.24795 34.1553 6.94114 34.1553 6.87014C34.1553 6.50406 36.1806 5.07492 36.7104 5.07492C36.8163 5.07492 36.8636 5.86635 36.887 8.20482L36.9221 11.3347L37.287 11.7008C37.8052 12.2089 38.3941 12.2089 38.9117 11.7008L39.2766 11.3347L39.3117 6.8936L39.3468 2.46421L40.4889 2.50001L41.6311 2.5352L41.6902 6.90656ZM26.0302 8.17025L26.0893 12.6348L26.3958 12.9417C27.0315 13.5794 28.1029 13.2725 28.3737 12.3867C28.4561 12.1268 28.5029 10.8279 28.5029 9.09132V6.22132L28.9152 6.29231C29.7158 6.42195 30.858 7.08374 31.6703 7.89862C33.319 9.51666 34.2138 11.7138 34.4488 14.714C34.543 15.8598 34.7904 16.3438 35.4144 16.6037C36.5215 17.076 36.6273 17.1945 36.7799 18.0211L36.8507 18.3989L35.2968 18.6353C31.9294 19.1786 29.8925 19.2965 24.7939 19.2965C19.7428 19.2965 17.8707 19.1786 14.4442 18.6588C13.6085 18.5285 12.9021 18.4224 12.8897 18.4224C12.7839 18.4224 12.8547 17.9143 13.0313 17.489C13.1605 17.1581 13.3254 16.9809 13.5845 16.8864C14.915 16.3784 15.1267 16.0598 15.2449 14.3584C15.4332 11.6891 16.3753 9.46851 18 7.85047C18.7064 7.14177 19.9902 6.42134 20.7551 6.30281L21.1908 6.23181L21.2259 9.4327L21.2609 12.6336L21.5668 12.9404C22.2025 13.5781 23.2739 13.2713 23.5447 12.3854C23.6271 12.1138 23.6739 10.4958 23.6739 7.88504C23.6739 5.64102 23.709 3.77481 23.7564 3.72728C23.8038 3.68036 24.3213 3.66801 24.9102 3.68036L25.9699 3.71555L26.0302 8.17025ZM48.0127 19.1551C47.9893 19.2379 47.8127 19.7577 47.6361 20.3127L47.3063 21.3164L47.8127 21.8245L48.3192 22.3209L48.2367 23.053C48.1309 24.1043 47.8601 24.5766 47.2595 24.8013C46.9887 24.8958 46.7413 25.0137 46.7062 25.0378C46.6829 25.0729 46.5413 25.6285 46.4121 26.278C46.0945 27.825 45.3173 29.4554 44.6225 30.0104L44.1277 30.3999L44.2102 32.9397C44.2927 35.4677 44.2927 35.4911 44.6459 36.1406C45.5056 37.7703 46.8478 38.7037 50.9451 40.5107C53.1587 41.5027 53.8534 41.8571 54.9722 42.6133C55.9968 43.2869 57.0449 44.3499 57.539 45.1883C57.7981 45.6253 58.2929 46.9131 58.2929 47.1489C58.2929 47.1958 55.4904 47.2434 52.0645 47.2434H45.8349L45.1992 46.7353C43.4564 45.3179 41.82 44.432 38.0994 42.9319C34.3079 41.3966 32.9307 40.5811 32.2242 39.5063C31.9177 39.0575 31.9177 39.0099 31.9177 36.9431V34.8404L32.3534 34.2855C32.9307 33.5292 33.8371 31.5803 34.1904 30.3759C34.4378 29.5017 34.5319 29.3363 35.0735 28.8405C35.4624 28.4745 35.7916 28.0257 36.0273 27.5176C36.3806 26.7379 36.7455 25.2495 36.7455 24.5408C36.7455 23.9741 36.4273 22.8166 36.1682 22.4499C35.9682 22.1665 35.9559 22.0838 36.0858 21.5523L36.239 20.9732L37.7578 20.6664L39.2766 20.3713L39.3117 19.8867L39.3468 19.4027L42.3726 19.32C44.033 19.2607 45.7401 19.1903 46.1641 19.1428C47.4595 18.9897 48.0835 18.9897 48.0127 19.1551ZM19.4363 21.6239C22.7447 21.8486 29.0795 21.7659 32.7177 21.4232C33.6833 21.3288 33.6833 21.3288 33.3768 22.2499L33.1768 22.8172L33.7417 23.3722L34.3067 23.9154L34.2365 24.8365C34.1891 25.5335 34.095 25.9347 33.8359 26.4311C33.5184 27.0688 33.471 27.1046 32.9294 27.2225L32.3405 27.3404L32.1405 28.4627C31.7639 30.5179 31.0223 32.1952 30.0445 33.1638L29.4088 33.8015L29.4678 36.6597C29.5269 39.4353 29.5386 39.5421 29.8328 40.1915C30.186 40.983 31.1048 41.9867 32.0937 42.6954C33.0827 43.4041 34.3073 43.9949 37.3098 45.2228C41.4896 46.9359 42.7025 47.6206 44.2213 49.18C45.2459 50.2195 45.7518 51.0696 46.1524 52.3691C46.2933 52.8062 46.3998 53.1957 46.3998 53.2192C46.3998 53.2426 36.7332 53.2667 24.9115 53.2667C6.54319 53.2667 3.42314 53.2433 3.42314 53.1013C3.42314 52.7587 4.01207 51.2116 4.38869 50.5739C4.60039 50.2078 5.14255 49.5343 5.60163 49.0855C7.02627 47.6564 8.56906 46.7822 12.5488 45.1759C17.2467 43.2622 18.8012 42.2349 19.7902 40.3687L20.1908 39.6248L20.2382 36.6597L20.2972 33.707L19.8025 33.3175C18.9194 32.6088 17.8597 30.4357 17.5538 28.6874C17.3064 27.2108 17.3538 27.3176 16.7883 27.2231C16.1759 27.1404 15.8935 26.8336 15.6227 26.0064C15.187 24.6007 15.2812 23.8685 15.9876 23.2777C16.435 22.8999 16.435 22.9116 16.1876 21.7424L16.1052 21.3411L16.9175 21.4239C17.3643 21.4584 18.4941 21.5529 19.4363 21.6239Z" fill="#345BA6"/>
</svg>
