<svg width="146" height="122" viewBox="0 0 146 122" fill="none" xmlns="http://www.w3.org/2000/svg">
<g opacity="0.2">
<mask id="mask0" mask-type="alpha" maskUnits="userSpaceOnUse" x="0" y="0" width="146" height="122">
<g clip-path="url(#clip0)">
<path d="M145.164 56.6986C145.092 57.6859 145.021 58.6746 144.945 59.6619C144.563 64.6627 141.974 68.2633 137.893 70.8766C135.621 72.3306 133.137 73.1084 130.41 73.1159C123.451 73.1354 116.49 73.2371 109.531 73.2491C95.1672 73.2715 80.8033 73.2685 66.4379 73.2521C48.6183 73.2326 30.7986 73.2132 12.9804 73.1144C11.8102 73.1084 10.6015 72.5325 9.48457 72.0479C4.89856 70.0553 1.89306 66.6223 0.577695 61.7382C0.392537 61.0501 0.334767 60.3141 0.314029 59.5976C0.222191 56.558 0.168865 53.5183 0.09332 50.4787C0.0844324 50.1092 0.0325879 49.7397 0 49.3702C0 40.893 0 32.4159 0 23.9387C0.0325879 23.5946 0.0844324 23.2506 0.09332 22.905C0.158496 20.1406 0.290329 17.3747 0.25626 14.6103C0.21034 10.7943 1.69309 7.6365 4.16829 4.89903C6.2954 2.5445 8.83578 0.798803 12.0383 0.376963C13.6706 0.161556 15.3371 0.179506 16.9887 0.169035C23.8959 0.125654 30.8045 0.110696 37.7117 0.0807779C37.9783 0.079282 38.2449 0.0284218 38.5115 0C39.4492 0 40.3883 0 41.326 0C41.6178 0.0284218 41.9096 0.0807779 42.2014 0.0807779C59.0108 0.0972326 75.8218 0.110696 92.6312 0.122663C106.086 0.131638 119.539 0.139117 132.991 0.154076C133.307 0.154076 133.642 0.158564 133.934 0.26178C138.936 2.04039 142.507 5.33134 144.459 10.3695C144.845 11.3613 145.068 12.3306 145.058 13.4031C145.027 16.4697 145.065 19.5363 145.086 22.6013C145.089 23.0456 145.138 23.4914 145.166 23.9357C145.164 34.8571 145.164 45.7771 145.164 56.6986ZM5.99322 42.5954C50.4624 42.5954 94.8294 42.5954 139.236 42.5954C139.236 42.365 139.236 42.1915 139.236 42.0194C139.232 35.5378 139.253 29.0561 139.21 22.5744C139.191 19.635 139.111 16.6911 138.939 13.7577C138.752 10.5654 134.922 5.93568 130.704 6.1436C129.35 6.20942 127.989 6.14809 126.632 6.14809C94.665 6.13762 62.6992 6.11219 30.7319 6.13164C25.0572 6.13463 19.3809 6.28123 13.7077 6.44877C10.4726 6.5445 7.11454 9.45251 6.52796 12.6687C6.21689 14.3725 6.10876 16.1346 6.09395 17.8714C6.02581 25.8489 6.02285 33.8265 5.99618 41.804C5.99322 42.0479 5.99322 42.2932 5.99322 42.5954ZM138.948 48.8063C138.625 48.8063 138.259 48.8063 137.893 48.8063C132.783 48.8003 127.674 48.7913 122.563 48.7883C90.473 48.7719 58.3813 48.7479 26.2911 48.7509C20.0712 48.7509 13.8514 48.8571 7.63151 48.9245C7.12639 48.9304 6.62276 49.0142 6.16949 49.0576C6.16949 52.2842 6.16357 55.3957 6.17245 58.5071C6.17838 60.4981 6.96641 62.1989 8.22105 63.6694C10.0371 65.7966 12.2457 67.0366 15.1549 67.0277C37.3473 66.9618 59.5382 66.9469 81.7306 66.92C98.1208 66.899 114.513 66.8691 130.903 66.89C132.226 66.8915 133.363 66.5864 134.453 65.8983C136.775 64.4323 138.642 62.4488 138.875 59.6814C139.174 56.1212 138.948 52.5161 138.948 48.8063Z" fill="white"/>
<path d="M48.3818 79.4211C50.9266 79.4555 52.2035 81.5348 51.1399 83.7277C50.9888 84.0389 50.8185 84.353 50.5963 84.6148C48.6988 86.8467 48.3744 89.454 49.1447 92.1376C50.0349 95.2386 51.1681 98.2693 52.2316 101.318C53.1648 103.994 54.2121 106.639 54.4417 109.505C54.6416 112.006 54.5765 114.486 53.6373 116.865C52.993 118.494 52.0183 119.898 50.6778 120.999C50.1623 121.423 49.5016 121.756 48.8558 121.904C47.7878 122.147 46.8324 121.773 46.2177 120.82C45.5363 119.762 45.4978 118.618 46.0177 117.473C46.1495 117.183 46.3406 116.905 46.5584 116.675C48.7551 114.362 48.961 111.556 48.1685 108.714C47.2086 105.27 45.9007 101.927 44.8268 98.5146C44.1039 96.2199 43.3322 93.9118 42.9233 91.5497C42.2094 87.4196 43.2596 83.6963 46.1244 80.5684C46.7731 79.8609 47.4975 79.3478 48.3818 79.4211Z" fill="white"/>
<path d="M93.7158 118.906C93.9987 118.239 94.1246 117.421 94.5897 116.929C97.1123 114.254 97.1479 111.137 96.1599 107.922C95.1008 104.482 93.8432 101.101 92.6404 97.7068C91.6287 94.8511 90.9236 91.9536 90.9562 88.8885C90.9917 85.5631 92.3071 82.8092 94.4875 80.4278C95.6637 79.1428 97.3612 78.9947 98.5418 79.976C99.8838 81.092 100.199 82.8631 99.0173 84.2198C96.7006 86.8795 96.5969 89.8534 97.5671 92.9798C98.5018 95.991 99.5994 98.9513 100.636 101.93C101.553 104.562 102.403 107.209 102.71 110.001C103.122 113.761 102.095 117.101 99.8083 120.051C99.3772 120.607 98.7995 121.08 98.2115 121.475C97.3153 122.078 96.3199 122.209 95.3467 121.63C94.3616 121.044 93.7765 120.203 93.9024 118.978C93.8417 118.953 93.7795 118.929 93.7158 118.906Z" fill="white"/>
<path d="M78.7073 111.361C78.7132 114.808 77.6734 117.599 75.7255 120.048C75.33 120.546 74.8367 120.99 74.3183 121.357C73.0296 122.266 71.7068 122.181 70.6699 121.195C69.6686 120.244 69.4508 118.6 70.1781 117.355C70.3529 117.056 70.5485 116.76 70.784 116.51C72.5778 114.625 72.9911 112.296 72.4608 109.907C71.8772 107.275 70.9558 104.715 70.1352 102.138C69.2227 99.2745 68.1029 96.4682 67.3637 93.5617C66.6483 90.748 66.5253 87.8325 67.5385 85.0172C68.1681 83.2715 69.1487 81.7128 70.424 80.3635C71.4876 79.2386 73.2103 79.086 74.4768 79.9656C75.5966 80.7435 75.9166 82.199 75.2663 83.6455C75.1256 83.9596 74.9597 84.2798 74.7405 84.5415C72.8089 86.8407 72.4504 89.4705 73.2814 92.2618C74.0828 94.9499 75.0012 97.6036 75.9373 100.248C77.0335 103.343 78.1652 106.423 78.5799 109.707C78.6614 110.347 78.6806 110.996 78.7073 111.361Z" fill="white"/>
<path d="M96.5869 24.1481C96.5869 27.3358 96.5839 30.5235 96.5884 33.7128C96.5899 34.9543 95.9988 35.7861 94.8879 36.2603C93.7443 36.7494 92.6156 36.531 91.792 35.7217C91.3076 35.246 91.0499 34.3739 90.9832 33.6529C90.8233 31.8953 90.7803 30.1211 90.7892 28.3545C90.8129 23.9207 90.8425 19.4869 90.9729 15.0561C91.0351 12.9199 92.6112 11.7636 94.4939 12.2617C95.7737 12.6013 96.7173 13.8384 96.7173 15.1787C96.7173 18.169 96.7173 21.1578 96.7173 24.1481C96.6758 24.1466 96.6313 24.1466 96.5869 24.1481Z" fill="white"/>
<path d="M60.2948 24.187C60.2948 27.3748 60.2933 30.5625 60.2963 33.7517C60.2978 35.0023 59.6742 35.8161 58.5647 36.2738C57.4197 36.7465 56.288 36.5176 55.4748 35.6934C54.9963 35.2087 54.7519 34.3336 54.6912 33.6096C54.5371 31.7757 54.4912 29.9283 54.5001 28.0868C54.5208 23.7787 54.5623 19.469 54.6719 15.1609C54.7208 13.2297 55.4614 12.4488 57.1501 12.184C58.7261 11.9357 60.4296 13.3942 60.4296 14.9918C60.4296 18.0569 60.4296 21.1205 60.4296 24.1855C60.3852 24.187 60.3407 24.187 60.2948 24.187Z" fill="white"/>
<path d="M24.0088 24.4727C24.0088 27.5617 24.0044 30.6492 24.0103 33.7382C24.0133 34.9888 23.3971 35.8056 22.2876 36.2678C21.1426 36.7465 20.0124 36.5176 19.1962 35.6993C18.7148 35.2162 18.4763 34.3456 18.4022 33.6201C18.2437 32.0628 18.2082 30.4877 18.2171 28.92C18.2423 24.3366 18.3015 19.7532 18.3711 15.1713C18.3934 13.7547 18.9414 12.7136 20.4168 12.2573C21.9069 11.7966 23.6237 12.6806 23.8489 14.2498C24.034 15.5512 24.0903 16.8781 24.117 18.1945C24.1585 20.2872 24.1288 22.38 24.1288 24.4727C24.0888 24.4727 24.0488 24.4727 24.0088 24.4727Z" fill="white"/>
<path d="M78.4991 24.012C78.4991 27.0262 78.5169 30.0404 78.4887 33.0546C78.4799 33.991 78.4695 34.9588 77.6548 35.6649C76.7853 36.4188 75.8195 36.7345 74.7115 36.362C73.6376 36 72.9606 35.2311 72.8244 34.0927C72.7029 33.0815 72.6407 32.0568 72.6437 31.0381C72.6555 26.0568 72.694 21.074 72.734 16.0927C72.7385 15.5976 72.8466 15.104 72.8703 14.6073C72.9843 12.19 75.9736 11.5796 77.3452 12.7554C78.1199 13.4196 78.6354 14.1062 78.5954 15.2685C78.4962 18.1795 78.5628 21.0965 78.5628 24.012C78.5421 24.012 78.5199 24.012 78.4991 24.012Z" fill="white"/>
<path d="M114.797 23.9566C114.797 26.8212 114.799 29.6859 114.794 32.5505C114.794 32.923 114.744 33.2969 114.748 33.6694C114.773 36.0688 112.215 37.1129 110.361 36.0718C109.601 35.6455 109.257 35.0082 109.183 34.2124C109.059 32.9005 108.934 31.5812 108.933 30.2648C108.93 25.632 108.973 20.9993 109.014 16.3665C109.02 15.7472 109.087 15.1234 109.176 14.5086C109.441 12.6612 111.421 11.5752 113.07 12.4353C114.142 12.9948 114.926 13.7517 114.874 15.2117C114.773 18.1227 114.845 21.0397 114.845 23.9536C114.828 23.9566 114.813 23.9566 114.797 23.9566Z" fill="white"/>
<path d="M42.2135 23.991C42.2135 26.9828 42.2328 29.9745 42.1987 32.9663C42.1913 33.6529 42.1172 34.3829 41.8684 35.0112C41.4714 36.0194 40.039 36.6537 38.9369 36.4637C37.4927 36.2139 36.7268 35.5467 36.6098 34.166C36.4469 32.2318 36.3462 30.2857 36.3387 28.3455C36.3254 24.3321 36.3876 20.3186 36.4306 16.3051C36.4365 15.7591 36.5298 15.2146 36.5639 14.6686C36.6409 13.436 37.3475 12.7404 38.4436 12.3455C39.5072 11.9626 40.4271 12.2019 41.2551 12.9334C41.9498 13.5452 42.3364 14.2124 42.3053 15.2431C42.2165 18.157 42.2742 21.077 42.2742 23.994C42.2565 23.991 42.2342 23.991 42.2135 23.991Z" fill="white"/>
<path d="M130.111 30.5011C131.658 30.5131 133.021 31.9237 133.007 33.4974C132.994 35.1384 131.613 36.534 130.036 36.4996C128.475 36.4667 127.038 34.9933 127.066 33.454C127.095 31.8818 128.531 30.4891 130.111 30.5011Z" fill="white"/>
<path d="M72.6759 54.9873C91.8791 54.9873 111.081 54.9873 130.284 54.9873C131.796 54.9873 132.992 56.2843 132.999 57.9312C133.007 59.644 132.023 60.7046 130.348 60.7211C122.377 60.8004 114.405 60.9051 106.434 60.929C89.1817 60.9799 71.9294 61.0262 54.6785 60.9963C41.5737 60.9739 28.4689 60.8303 15.3641 60.7345C13.5021 60.7211 12.8474 60.3232 12.4119 58.9918C11.9527 57.5872 12.4445 56.0823 13.7199 55.1758C13.9509 55.0113 14.3198 54.9963 14.6249 54.9948C22.646 54.9858 30.6686 54.9873 38.6896 54.9873C50.0184 54.9873 61.3472 54.9873 72.6759 54.9873Z" fill="white"/>
</g>
</mask>
<g mask="url(#mask0)">
<rect x="-171.418" y="-217.747" width="293.418" height="305.772" fill="white"/>
</g>
</g>
<defs>
<clipPath id="clip0">
<rect width="145.165" height="122" fill="white"/>
</clipPath>
</defs>
</svg>
