<svg width="109" height="120" viewBox="0 0 109 120" fill="none" xmlns="http://www.w3.org/2000/svg">
<g opacity="0.2">
<mask id="mask0" mask-type="alpha" maskUnits="userSpaceOnUse" x="0" y="0" width="109" height="120">
<path d="M9.15504 67.8034L47.7026 114.2C51.0755 118.067 55.0105 120 59.5077 120C63.5231 120 66.9763 118.792 69.8674 116.375L103.356 88.1021C106.568 85.2023 108.415 81.5775 108.897 77.2278C109.379 73.2002 108.174 69.2533 105.283 65.3868L66.7354 18.9898C62.5594 13.5123 57.0985 10.0487 50.3527 8.59876L16.8645 0.86592C13.6522 -0.100686 10.6006 0.624268 7.7095 3.04078L3.61383 6.66555C1.20461 8.43766 0 11.3375 0 15.365L1.92738 49.9212C2.73045 56.8485 5.13967 62.8092 9.15504 67.8034ZM14.9372 10.7736L48.9072 18.9898C52.4407 19.7953 55.9742 21.9701 59.5077 25.5144L98.0553 71.9114C99.3402 73.2002 99.7417 74.6501 99.2599 76.2612C99.2599 77.2278 98.5371 78.5971 97.0916 80.3692L63.6034 108.642C62.4791 109.609 61.1139 110.052 59.5077 109.972C57.9016 109.891 56.697 109.287 55.8939 108.159L17.3464 61.7621C14.2947 57.8956 12.7689 53.9487 12.7689 49.9212L10.3596 14.3984L14.9372 10.7736ZM28.6697 27.6892C28.6697 29.1391 28.1879 30.3474 27.2242 31.314C26.2605 32.2806 25.0559 32.7639 23.6104 32.7639C22.1648 32.7639 20.9602 32.2806 19.9965 31.314C19.0328 30.3474 18.551 29.1391 18.551 27.6892C18.551 26.2393 19.0328 25.0311 19.9965 24.0645C20.9602 23.0978 22.1648 22.6145 23.6104 22.6145C25.0559 22.6145 26.2605 23.0978 27.2242 24.0645C28.1879 25.0311 28.6697 26.2393 28.6697 27.6892ZM31.3199 63.6953L78.5406 78.6777H80.227C82.4756 78.6777 84.1621 77.4694 85.2864 75.0529C85.7682 73.7641 85.6879 72.4753 85.0455 71.1865C84.403 69.8977 83.4393 69.0116 82.1544 68.5283L34.9337 53.5459C33.6488 52.9015 32.3237 52.9015 30.9585 53.5459C29.5933 54.1903 28.6697 55.1569 28.1879 56.4457C27.2242 60.1511 28.2682 62.5676 31.3199 63.6953ZM69.8674 86.8938C69.8674 88.9881 69.1446 90.8005 67.6991 92.331C66.2536 93.8614 64.4065 94.6267 62.1579 94.6267C59.9093 94.6267 58.0622 93.8614 56.6167 92.331C55.1711 90.8005 54.4484 88.9881 54.4484 86.8938C54.4484 84.7995 55.2113 82.9871 56.7371 81.4567C58.263 79.9262 60.0699 79.161 62.1579 79.161C64.2459 79.161 66.0528 79.9262 67.5786 81.4567C69.1045 82.9871 69.8674 84.7995 69.8674 86.8938ZM54.4484 45.8131C54.4484 47.9074 53.6855 49.7198 52.1596 51.2502C50.6338 52.7807 48.8269 53.5459 46.7389 53.5459C44.6509 53.5459 42.844 52.7807 41.3181 51.2502C39.7923 49.7198 39.0294 47.9074 39.0294 45.8131C39.0294 43.7188 39.7521 41.9064 41.1977 40.3759C42.6432 38.8455 44.4903 38.0802 46.7389 38.0802C48.9875 38.0802 50.8345 38.8455 52.2801 40.3759C53.7256 41.9064 54.4484 43.7188 54.4484 45.8131Z" fill="black"/>
</mask>
<g mask="url(#mask0)">
<rect x="-303" y="-303" width="380" height="396" fill="white"/>
</g>
</g>
</svg>
