<svg width="123" height="31" viewBox="0 0 123 31" fill="none" xmlns="http://www.w3.org/2000/svg">
<g clip-path="url(#clip0)">
<path d="M4.58821 29.1895L4.97189 27.8728C3.37538 27.7631 2.14766 27.3187 1.28838 26.5399C0.429458 25.7611 0 24.7625 0 23.5445C0 21.8549 0.673215 20.4586 2.01965 19.3558C3.36608 18.2531 5.14234 17.7019 7.34768 17.7019H8.02425L8.33499 16.6814H11.899L11.5887 17.7349C13.209 17.8338 14.4613 18.2612 15.3448 19.0185C16.2282 19.7754 16.67 20.7522 16.67 21.948C16.67 23.6597 15.9934 25.0805 14.641 26.2104C13.2883 27.3406 11.515 27.9055 9.32155 27.9055H8.53558L8.15152 29.1891H4.58821V29.1895ZM5.81257 25.075L7.18357 20.5327H6.90929C5.97074 20.5327 5.19704 20.7714 4.58821 21.2489C3.97863 21.7259 3.67421 22.3761 3.67421 23.199C3.67421 23.7476 3.86624 24.1839 4.24993 24.5075C4.63361 24.8311 5.15462 25.0201 5.81257 25.075ZM9.37738 25.075H9.76106C10.6873 25.075 11.4581 24.8392 12.0732 24.3674C12.6887 23.8959 12.9961 23.2479 12.9961 22.4254C12.9961 21.8768 12.7952 21.4379 12.3933 21.1088C11.991 20.7796 11.4428 20.5931 10.7476 20.5494L9.37738 25.075Z" fill="#608FF7"/>
<path d="M16.5425 28.6959L19.9793 17.1753H23.4704L21.5512 23.6599L28.4244 17.1753H31.7332L28.3146 28.6959H24.8049L26.7244 22.2113L19.8512 28.6959H16.5425Z" fill="#608FF7"/>
<path d="M29.0635 31L30.5625 25.898H31.6045C32.3477 24.9984 32.9814 24.0521 33.5054 23.059C34.0294 22.0664 34.5843 20.5822 35.1689 18.6072L35.5895 17.1753H45.515L42.9193 25.898H44.3632L42.444 31H39.4464L40.1408 28.6959H33.1578L32.2256 31H29.0635ZM35.4064 25.898H39.3731L41.1828 19.8909H38.2217L37.838 21.0266C37.1674 23.0234 36.3568 24.6474 35.4064 25.898Z" fill="#608FF7"/>
<path d="M43.3213 28.6959L50.1026 21.7012L47.2694 17.1753H51.1446L53.7585 21.9481L55.1846 17.1753H58.7308L57.3598 21.8165L62.5148 17.1753H66.9203L60.9797 22.1453L63.5933 28.6955H59.6448L57.9995 24.3671L56.1533 25.8484L55.3126 28.6955H51.7664L52.6804 25.6178L51.8394 24.2845L47.8544 28.6959H43.3213Z" fill="#608FF7"/>
<path d="M64.7261 28.6959L68.1629 17.1753H71.654L69.7344 23.6599L76.6076 17.1753H79.9164L76.4979 28.6959H72.9881L74.9077 22.2113L68.0345 28.6959H64.7261Z" fill="#608FF7"/>
<path d="M79.5195 28.6961L82.8588 17.5046H88.099C89.2359 17.5046 90.1418 17.7315 90.8165 18.1852C91.4904 18.6385 91.8276 19.2602 91.8276 20.0504C91.8276 20.8259 91.5232 21.4623 90.9136 21.9598C90.3044 22.4572 89.5125 22.7938 88.5374 22.9691C89.2356 23.1156 89.8087 23.401 90.2553 23.825C90.7018 24.2495 90.9255 24.7762 90.9255 25.4052C90.9255 26.3705 90.4585 27.1607 89.5244 27.775C88.5899 28.3895 87.3268 28.6965 85.7344 28.6965H79.5195V28.6961ZM80.9821 27.7305H85.6373C86.8721 27.7305 87.8508 27.5185 88.5743 27.0944C89.2974 26.6703 89.6587 26.085 89.6587 25.3389C89.6587 24.7391 89.3662 24.271 88.7816 23.9344C88.1962 23.5982 87.4411 23.4295 86.5148 23.4295H82.2742L80.9821 27.7305ZM82.5421 22.508H86.539C87.7414 22.508 88.7082 22.2923 89.4391 21.8605C90.1704 21.4294 90.5359 20.8548 90.5359 20.1379C90.5359 19.0263 89.6345 18.4702 87.8311 18.4702H83.7609L82.5421 22.508Z" fill="#608FF7"/>
<path d="M99.6758 28.9593C98.083 28.9593 96.7835 28.5204 95.776 27.6426C94.7683 26.7652 94.2651 25.6388 94.2651 24.2632C94.2651 22.4639 94.9718 20.8437 96.3856 19.4029C97.799 17.962 99.4886 17.2415 101.455 17.2415C102.95 17.2415 104.107 17.6511 104.928 18.4702C105.748 19.2898 106.159 20.3066 106.159 21.5205C106.159 22.2374 106.045 22.8883 105.818 23.4736H95.6056C95.5729 23.7957 95.5565 24.0441 95.5565 24.2198C95.5565 25.3463 95.9383 26.2496 96.7023 26.9298C97.4656 27.6104 98.457 27.9503 99.6758 27.9503C101.154 27.9503 102.567 27.4532 103.916 26.4579L104.623 27.226C103.079 28.3818 101.431 28.9593 99.6758 28.9593ZM95.8248 22.508H104.843C104.908 22.2445 104.94 21.9376 104.94 21.5865C104.94 20.6209 104.644 19.8199 104.051 19.1834C103.458 18.5473 102.584 18.2289 101.431 18.2289C100.099 18.2289 98.9244 18.6385 97.9088 19.4577C96.8929 20.2773 96.1984 21.2937 95.8248 22.508Z" fill="#608FF7"/>
<path d="M116.054 17.5924C117.711 17.5924 119.047 18.0312 120.063 18.909C121.078 19.7868 121.586 20.9355 121.586 22.3541C121.586 24.0803 120.834 25.6127 119.332 26.9512C117.828 28.2897 116.176 28.9591 114.372 28.9591C112.552 28.9591 111.167 28.4984 110.217 27.5769C109.266 26.6554 108.791 25.4629 108.791 23.9999C108.791 23.3271 108.855 22.6284 108.986 21.9041C109.115 21.1801 109.347 20.4117 109.68 19.5999C110.013 18.7882 110.424 18.0498 110.911 17.3837C111.398 16.7179 112.032 16.1256 112.812 15.6063C113.592 15.0873 114.469 14.7322 115.444 14.5421L122.732 13.1379L122.999 14.1032L115.81 15.5514C114.461 15.8294 113.397 16.305 112.617 16.9778C111.837 17.6509 111.227 18.5947 110.789 19.8086H110.886C112.3 18.3311 114.022 17.5924 116.054 17.5924ZM115.883 18.558C114.323 18.558 112.962 19.1029 111.8 20.1926C110.639 21.2824 110.058 22.5735 110.058 24.0658C110.058 25.1923 110.427 26.1212 111.167 26.8526C111.906 27.5843 112.974 27.9498 114.371 27.9498C115.834 27.9498 117.182 27.376 118.417 26.2272C119.652 25.0789 120.27 23.773 120.27 22.3103C120.27 21.1549 119.883 20.2405 119.112 19.5673C118.34 18.8945 117.264 18.558 115.883 18.558Z" fill="#608FF7"/>
<path d="M1.39258 5.98193C1.39258 4.80466 1.77998 3.82496 2.55405 3.04172C3.32775 2.2596 4.31022 1.86816 5.49997 1.86816C6.72843 1.86816 7.71202 2.22142 8.4511 2.9283L7.87948 3.77159C7.58214 3.50544 7.22153 3.29267 6.79802 3.13291C6.37563 2.97389 5.95734 2.89382 5.54649 2.89382C4.63101 2.89382 3.90495 3.18629 3.36682 3.77159C2.82795 4.35651 2.56038 5.08934 2.56038 5.97044C2.56038 6.85932 2.83465 7.61142 3.3832 8.22711C3.93286 8.84206 4.66041 9.14972 5.56807 9.14972C6.01874 9.14972 6.46309 9.05668 6.90073 8.8706C7.33987 8.68453 7.72355 8.42802 8.05067 8.10108L8.65727 8.91027C7.80356 9.76134 6.76192 10.1865 5.53495 10.1865C4.30649 10.1865 3.30988 9.78654 2.54251 8.98403C1.77626 8.18337 1.39258 7.18255 1.39258 5.98193Z" fill="white"/>
<path d="M10.3389 10.0502L13.2334 2.00537H14.4347L17.3293 10.0502H16.1626L15.3502 7.73713H12.3075L11.4951 10.0502H10.3389ZM12.6049 6.80229H15.0525L14.1601 4.26168L13.8397 3.11073H13.8166C13.7035 3.59668 13.6004 3.9807 13.5077 4.26168L12.6049 6.80229Z" fill="white"/>
<path d="M19.708 10.0501V2.00499H20.8412V7.2241L20.7731 8.39766H20.7951C21.063 7.89614 21.2908 7.50174 21.4828 7.21261L25.0636 2.00499H26.1722V10.0498H25.052V4.83065L25.1201 3.65709H25.0971C24.8384 4.14304 24.6129 4.53448 24.4224 4.83065L20.8185 10.0498H19.708V10.0501ZM22.9796 1.62949C22.5147 1.62949 22.1169 1.4979 21.7846 1.23658C21.4523 0.974136 21.2863 0.619029 21.2863 0.170882V0H22.1798V0.15902C22.1798 0.395141 22.2598 0.578996 22.4195 0.711698C22.5791 0.845141 22.7671 0.911121 22.9796 0.911121C23.201 0.911121 23.3915 0.845141 23.5527 0.711698C23.7123 0.578996 23.7923 0.391063 23.7923 0.1479V0H24.6732V0.170511C24.6732 0.618658 24.5098 0.974136 24.1812 1.2362C23.8537 1.4979 23.4533 1.62949 22.9796 1.62949Z" fill="white"/>
<path d="M31.3424 10.05V2.98495H28.5625V2.00488H35.2437V2.98458H32.4637V10.0497H31.3424V10.05Z" fill="white"/>
<path d="M41.6392 10.05V2.00488H44.6029C45.3498 2.00488 45.9576 2.23507 46.4276 2.69434C46.8961 3.15398 47.1306 3.76374 47.1306 4.52326C47.1306 5.28314 46.895 5.89883 46.4213 6.36922C45.9486 6.84035 45.3424 7.07573 44.6033 7.07573H42.7723V10.0497H41.6392V10.05ZM42.772 6.09603H44.4187C44.9003 6.09603 45.2814 5.95555 45.5635 5.6742C45.8455 5.39323 45.987 5.00995 45.987 4.52326C45.987 4.04471 45.8478 3.66922 45.5687 3.39529C45.2907 3.1221 44.9107 2.98495 44.4306 2.98495H42.7723V6.09603H42.772Z" fill="white"/>
<path d="M48.377 10.0502L51.2715 2.00537H52.4728L55.3674 10.0502H54.2007L53.3883 7.73713H50.3456L49.5332 10.0502H48.377ZM50.643 6.80229H53.0906L52.1982 4.26168L51.8777 3.11073H51.8547C51.7415 3.59668 51.6385 3.9807 51.5458 4.26168L50.643 6.80229Z" fill="white"/>
<path d="M56.9917 9.09263L57.6214 8.32941C57.8491 8.57257 58.1338 8.77385 58.4736 8.93361C58.8122 9.09263 59.1613 9.1727 59.5204 9.1727C60.0225 9.1727 60.4296 9.04111 60.7385 8.77978C61.0474 8.51734 61.2022 8.16223 61.2022 7.71409C61.2022 7.30375 61.0619 6.97941 60.7839 6.73995C60.5059 6.50086 60.1416 6.38077 59.692 6.38077H58.6969V5.44666H59.4977C59.9097 5.44666 60.2547 5.32471 60.5331 5.08192C60.8114 4.83912 60.9502 4.52776 60.9502 4.14781C60.9502 3.77602 60.8304 3.46799 60.5896 3.2252C60.35 2.98204 59.9934 2.86045 59.5208 2.86045C58.8565 2.86045 58.254 3.08805 57.7129 3.54398L57.2314 2.70069C57.9035 2.14653 58.72 1.8689 59.6805 1.8689C60.3898 1.8689 60.9707 2.06054 61.4251 2.44419C61.8784 2.82821 62.1061 3.35012 62.1061 4.0114C62.1061 4.83171 61.7161 5.43554 60.9383 5.8229V5.84588C61.3734 5.96709 61.7187 6.19728 61.9736 6.53534C62.2297 6.87339 62.3573 7.28558 62.3573 7.77154C62.3573 8.50066 62.0961 9.08596 61.5732 9.52669C61.0518 9.96706 60.3976 10.1872 59.6124 10.1872C59.1155 10.1872 58.634 10.0905 58.1651 9.89663C57.6951 9.70239 57.3047 9.43439 56.9917 9.09263Z" fill="white"/>
<path d="M65.1372 10.05V2.00488H68.101C68.8479 2.00488 69.4556 2.23507 69.9256 2.69434C70.3942 3.15398 70.6286 3.76374 70.6286 4.52326C70.6286 5.28314 70.3931 5.89883 69.9193 6.36922C69.4467 6.84035 68.8404 7.07573 68.1014 7.07573H66.2704V10.0497H65.1372V10.05ZM66.2704 6.09603H67.9172C68.3987 6.09603 68.7798 5.95555 69.0619 5.6742C69.344 5.39323 69.4854 5.00995 69.4854 4.52326C69.4854 4.04471 69.3462 3.66922 69.0671 3.39529C68.7891 3.1221 68.4091 2.98495 67.9291 2.98495H66.2708V6.09603H66.2704Z" fill="white"/>
<path d="M71.8745 10.0502L74.7691 2.00537H75.9704L78.8649 10.0502H77.6983L76.8859 7.73713H73.8432L73.0308 10.0502H71.8745ZM74.1409 6.80229H76.5885L75.6961 4.26168L75.3757 3.11073H75.3526C75.2395 3.59668 75.1364 3.9807 75.0437 4.26168L74.1409 6.80229Z" fill="white"/>
<path d="M81.2446 10.05V2.00488H86.0152V2.98458H82.3778V5.22939H84.1507C84.8757 5.22939 85.4666 5.44439 85.9236 5.87326C86.3821 6.30287 86.6099 6.89743 86.6099 7.65658C86.6099 8.37087 86.387 8.94801 85.9415 9.38838C85.4946 9.82948 84.9166 10.0497 84.2084 10.0497H81.2446V10.05ZM82.3774 9.07034H84.0242C84.4749 9.07034 84.8277 8.94468 85.0826 8.6941C85.339 8.44352 85.4663 8.09768 85.4663 7.65732C85.4663 7.21696 85.3349 6.86556 85.0711 6.60312C84.8083 6.34142 84.4518 6.2102 84.0022 6.2102H82.3774V9.07034Z" fill="white"/>
<path d="M88.8062 5.97055C88.8062 4.81627 89.2066 3.84361 90.0074 3.0537C90.8083 2.26379 91.7919 1.86865 92.9597 1.86865C94.1264 1.86865 95.1085 2.26379 95.9056 3.0537C96.7027 3.84361 97.1006 4.81664 97.1006 5.97055C97.1006 7.1556 96.7027 8.15458 95.9056 8.96784C95.1085 9.7811 94.1264 10.187 92.9597 10.187C91.7919 10.187 90.8083 9.7811 90.0074 8.96784C89.2066 8.15458 88.8062 7.1556 88.8062 5.97055ZM89.9739 5.97055C89.9739 6.86685 90.2635 7.62117 90.8429 8.23279C91.4223 8.84403 92.1279 9.14984 92.9597 9.14984C93.7903 9.14984 94.4944 8.84403 95.0701 8.23279C95.6458 7.62117 95.9342 6.86685 95.9342 5.97055C95.9342 5.10502 95.6458 4.37516 95.0701 3.78282C94.4944 3.19048 93.7903 2.89394 92.9597 2.89394C92.1279 2.89394 91.4223 3.19011 90.8429 3.78282C90.2635 4.37553 89.9739 5.10502 89.9739 5.97055Z" fill="white"/>
<path d="M101.402 10.05V2.98495H98.6216V2.00488H105.303V2.98458H102.523V10.0497H101.402V10.05Z" fill="white"/>
<path d="M106.115 10.0502L109.009 2.00537H110.211L113.105 10.0502H111.938L111.126 7.73713H108.083L107.271 10.0502H106.115ZM108.381 6.80229H110.829L109.936 4.26168L109.616 3.11073H109.593C109.48 3.59668 109.377 3.9807 109.284 4.26168L108.381 6.80229Z" fill="white"/>
<path d="M115.484 10.05V2.00488H116.618V5.53742H120.816V2.00488H121.937V10.0497H120.816V6.51712H116.618V10.0497H115.484V10.05Z" fill="white"/>
</g>
<defs>
<clipPath id="clip0">
<rect width="123" height="31" fill="white"/>
</clipPath>
</defs>
</svg>
