<svg width="134" height="41" viewBox="0 0 134 41" fill="none" xmlns="http://www.w3.org/2000/svg">
<g clip-path="url(#clip0)">
<path d="M0.00738786 21.4633C0.00738786 15.2574 0.00954347 9.05216 0.000921023 2.84624C0.000921023 2.57949 0.0598411 2.50512 0.337196 2.50655C2.96776 2.51799 5.59761 2.51728 8.22817 2.50727C8.49331 2.50655 8.57091 2.56019 8.57019 2.83909C8.56013 7.77708 8.56301 12.7144 8.56301 17.6523C8.56301 17.997 8.56301 17.997 8.91222 17.997C14.3523 17.997 19.7923 17.9949 25.2324 18.0042C25.5155 18.0049 25.5686 17.9234 25.5679 17.6595C25.56 12.7129 25.5636 7.76635 25.5571 2.81978C25.5571 2.58164 25.6081 2.50584 25.8632 2.50727C28.5204 2.51728 31.1775 2.51585 33.8347 2.5087C34.051 2.50798 34.1235 2.55446 34.1235 2.78474C34.1178 15.2316 34.1178 27.6785 34.1228 40.1254C34.1228 40.3421 34.0747 40.4121 33.844 40.4114C31.1782 40.4029 28.5118 40.4021 25.8453 40.4129C25.5931 40.4136 25.5571 40.3313 25.5571 40.1089C25.5629 35.1709 25.5614 30.2337 25.5614 25.2957C25.5614 24.9217 25.5614 24.9217 25.1849 24.9217C19.7628 24.9217 14.3408 24.9217 8.91868 24.9217C8.56229 24.9217 8.56157 24.9217 8.56157 25.2878C8.56157 30.2165 8.55942 35.1452 8.56804 40.0739C8.56876 40.3414 8.5084 40.4136 8.23176 40.4121C5.6012 40.4007 2.97135 40.4014 0.340789 40.4114C0.0749303 40.4121 -0.00195312 40.3557 -0.00195312 40.0782C0.00954347 33.8751 0.00738786 27.6692 0.00738786 21.4633Z" fill="white"/>
<path d="M68.5164 26.0816C68.5164 30.7507 68.5143 35.4205 68.5222 40.0896C68.5229 40.3471 68.4611 40.4143 68.1996 40.4136C65.8571 40.4029 63.514 40.4036 61.1715 40.4122C60.9395 40.4129 60.8511 40.3635 60.8712 40.1197C60.8942 39.8358 60.8769 39.549 60.8762 39.2629C60.8755 38.9318 60.8712 38.9232 60.591 39.0806C59.6899 39.5847 58.7458 39.9931 57.7592 40.2985C56.0261 40.8341 54.2535 41.0722 52.4377 40.9743C50.8555 40.8892 49.32 40.5809 47.8384 40.0188C46.3021 39.436 44.9003 38.6258 43.627 37.5881C42.2108 36.4339 41.0453 35.0694 40.1285 33.4975C39.305 32.0851 38.7403 30.5719 38.4126 28.97C38.1554 27.7135 38.0835 26.442 38.1539 25.1691C38.2488 23.4506 38.6411 21.7922 39.328 20.2068C40.1148 18.3918 41.207 16.7799 42.6319 15.4068C44.7882 13.3294 47.3368 11.9799 50.2958 11.4021C51.804 11.1074 53.3208 11.0545 54.8391 11.2076C56.9573 11.4214 58.9434 12.0764 60.7914 13.137C61.048 13.2843 61.0595 13.2764 61.0602 12.9761C61.0616 12.655 61.0738 12.3325 61.0559 12.0121C61.0436 11.7961 61.1004 11.7239 61.3325 11.7253C63.6397 11.7346 65.9462 11.7339 68.2534 11.726C68.4669 11.7253 68.5215 11.7847 68.5215 11.9942C68.5143 14.5386 68.5171 17.0831 68.5171 19.6275C68.5164 21.7787 68.5164 23.9305 68.5164 26.0816ZM53.6061 17.3627C53.1182 17.3627 52.6339 17.4035 52.1604 17.4871C49.6972 17.9227 47.7098 19.1362 46.2871 21.1894C44.98 23.0752 44.5195 25.1763 44.8816 27.4411C45.2287 29.6129 46.2878 31.3958 47.9979 32.7688C49.7195 34.1519 51.7048 34.7991 53.9316 34.7204C55.2163 34.6754 56.4342 34.38 57.5717 33.8072C59.4061 32.884 60.7785 31.4959 61.6393 29.6258C62.2278 28.3479 62.485 27.0091 62.4081 25.6046C62.3226 24.0392 61.8642 22.5896 60.9718 21.3002C59.1992 18.7372 56.7094 17.4736 53.6061 17.3627Z" fill="white"/>
<path d="M104.62 27.6563C100.813 27.6563 97.0071 27.6563 93.2003 27.6563C92.8561 27.6563 92.8547 27.6571 92.9258 27.9939C93.4647 30.539 94.8587 32.4985 97.0819 33.8451C98.3249 34.5981 99.6988 34.975 101.171 34.9865C103.792 35.0072 105.931 33.9817 107.668 32.0716C108.052 31.6489 108.384 31.1805 108.663 30.6806C108.733 30.5562 108.81 30.5219 108.943 30.5462C110.508 30.8251 112.073 31.1018 113.638 31.3772C114.086 31.4558 114.534 31.5366 114.983 31.6053C115.348 31.6611 115.356 31.6575 115.211 31.98C114.672 33.1736 113.996 34.2849 113.17 35.3033C112.12 36.5976 110.887 37.6925 109.474 38.58C107.671 39.7113 105.722 40.4579 103.611 40.7898C102.313 40.9936 101.011 41.0622 99.7038 40.9392C96.6694 40.6532 93.9296 39.6055 91.5175 37.7426C89.8239 36.4346 88.4695 34.8413 87.4549 32.9583C86.6638 31.4909 86.1364 29.9362 85.8842 28.2949C85.6887 27.0242 85.6657 25.7491 85.8059 24.4633C86.1357 21.4354 87.3284 18.7865 89.2857 16.4702C90.4799 15.0571 91.9163 13.9294 93.5395 13.0319C95.0829 12.1787 96.7247 11.6087 98.4622 11.3213C99.8525 11.091 101.251 11.0495 102.659 11.1875C104.681 11.3863 106.589 11.9499 108.383 12.8874C109.513 13.4781 110.552 14.2033 111.505 15.0528C113.043 16.423 114.238 18.0414 115.11 19.8986C115.727 21.2137 116.126 22.5918 116.326 24.032C116.476 25.114 116.51 26.1946 116.426 27.2816C116.398 27.6485 116.391 27.657 116.013 27.657C112.215 27.6563 108.417 27.6563 104.62 27.6563ZM101.295 22.8735C103.863 22.8735 106.43 22.8714 108.997 22.8771C109.234 22.8778 109.271 22.8306 109.176 22.6075C108.564 21.1851 107.663 19.9872 106.434 19.0347C105.012 17.9305 103.391 17.3405 101.598 17.2697C100.036 17.2082 98.5613 17.5751 97.1983 18.3525C95.4659 19.3408 94.2293 20.7653 93.4417 22.5832C93.3232 22.8564 93.339 22.8735 93.6473 22.8735C96.1966 22.8742 98.746 22.8735 101.295 22.8735Z" fill="white"/>
<path d="M119.968 31.7791C119.968 29.0473 119.947 26.3155 119.976 23.5844C119.993 22.0082 120.333 20.4786 120.876 18.9989C121.759 16.5932 123.158 14.5258 125.065 12.8045C126.501 11.5094 128.127 10.5175 129.939 9.83022C130.785 9.50984 131.651 9.26741 132.54 9.09721C132.706 9.06574 132.752 9.09864 132.779 9.25597C132.961 10.3151 133.152 11.3728 133.339 12.4312C133.547 13.6033 133.75 14.7754 133.962 15.9468C134.033 16.3422 134.042 16.3401 133.639 16.413C130.572 16.9673 128.136 19.3722 127.572 22.3965C127.468 22.9501 127.417 23.5071 127.417 24.0671C127.414 29.4234 127.413 34.7791 127.422 40.1354C127.423 40.41 127.352 40.4694 127.084 40.468C124.805 40.4565 122.525 40.458 120.245 40.4665C120.023 40.4672 119.962 40.4115 119.962 40.1883C119.971 37.385 119.968 34.5817 119.968 31.7791Z" fill="white"/>
<path d="M73.6962 26.0809C73.6962 21.4032 73.6983 16.7255 73.6904 12.0486C73.6897 11.7968 73.7407 11.7217 74.0087 11.7232C76.4137 11.7346 78.8194 11.7325 81.2244 11.7253C81.4471 11.7246 81.5276 11.7582 81.5276 12.0106C81.5197 21.4018 81.5204 30.7922 81.5254 40.1833C81.5254 40.3993 81.478 40.4679 81.2488 40.4672C78.8259 40.4587 76.4022 40.4572 73.9793 40.4687C73.7278 40.4701 73.6911 40.3907 73.6911 40.1676C73.6983 35.472 73.6962 30.7765 73.6962 26.0809Z" fill="white"/>
<path d="M73.2656 4.33729C73.2312 1.96162 75.2078 -0.016442 77.643 0.000721209C80.0343 0.0171693 81.9707 1.90154 81.9779 4.33085C81.9844 6.75015 80.0292 8.67242 77.5955 8.66599C75.1108 8.65883 73.2297 6.6157 73.2656 4.33729Z" fill="white"/>
</g>
<defs>
<clipPath id="clip0">
<rect width="134" height="41" fill="white"/>
</clipPath>
</defs>
</svg>
