<svg width="134" height="41" viewBox="0 0 134 41" fill="none" xmlns="http://www.w3.org/2000/svg">
<g clip-path="url(#clip0)">
<path d="M0.00714372 21.4633C0.00714372 15.2574 0.00929933 9.05216 0.000676883 2.84624C0.000676883 2.57949 0.059597 2.50512 0.336952 2.50655C2.96752 2.51799 5.59736 2.51728 8.22793 2.50727C8.49307 2.50655 8.57067 2.56019 8.56995 2.83909C8.55989 7.77708 8.56277 12.7144 8.56277 17.6523C8.56277 17.997 8.56277 17.997 8.91197 17.997C14.352 17.997 19.7921 17.9949 25.2321 18.0042C25.5152 18.0049 25.5684 17.9234 25.5677 17.6595C25.5598 12.7129 25.5634 7.76635 25.5569 2.81978C25.5569 2.58164 25.6079 2.50584 25.863 2.50727C28.5201 2.51728 31.1773 2.51585 33.8344 2.5087C34.0507 2.50798 34.1233 2.55446 34.1233 2.78474C34.1175 15.2316 34.1175 27.6785 34.1226 40.1254C34.1226 40.3421 34.0744 40.4121 33.8438 40.4114C31.178 40.4029 28.5115 40.4021 25.845 40.4129C25.5928 40.4136 25.5569 40.3313 25.5569 40.1089C25.5626 35.1709 25.5612 30.2337 25.5612 25.2957C25.5612 24.9217 25.5612 24.9217 25.1847 24.9217C19.7626 24.9217 14.3405 24.9217 8.91844 24.9217C8.56205 24.9217 8.56133 24.9217 8.56133 25.2878C8.56133 30.2165 8.55917 35.1452 8.56779 40.0739C8.56851 40.3414 8.50816 40.4136 8.23152 40.4121C5.60096 40.4007 2.97111 40.4014 0.340545 40.4114C0.0746862 40.4121 -0.00219727 40.3557 -0.00219727 40.0782C0.00929933 33.8751 0.00714372 27.6692 0.00714372 21.4633Z" fill="#345AA6"/>
<path d="M68.5161 26.0816C68.5161 30.7507 68.5139 35.4205 68.5218 40.0896C68.5225 40.3471 68.4607 40.4143 68.1992 40.4136C65.8568 40.4029 63.5136 40.4036 61.1712 40.4122C60.9391 40.4129 60.8507 40.3635 60.8708 40.1197C60.8938 39.8358 60.8766 39.549 60.8759 39.2629C60.8751 38.9318 60.8708 38.9232 60.5906 39.0806C59.6896 39.5847 58.7454 39.9931 57.7589 40.2985C56.0257 40.8341 54.2531 41.0722 52.4374 40.9743C50.8552 40.8892 49.3196 40.5809 47.838 40.0188C46.3018 39.436 44.8999 38.6258 43.6267 37.5881C42.2104 36.4339 41.045 35.0694 40.1281 33.4975C39.3047 32.0851 38.7399 30.5719 38.4122 28.97C38.155 27.7135 38.0832 26.442 38.1536 25.1691C38.2484 23.4506 38.6407 21.7922 39.3277 20.2068C40.1145 18.3918 41.2066 16.7799 42.6315 15.4068C44.7878 13.3294 47.3365 11.9799 50.2954 11.4021C51.8036 11.1074 53.3204 11.0545 54.8387 11.2076C56.957 11.4214 58.943 12.0764 60.7911 13.137C61.0476 13.2843 61.0591 13.2764 61.0598 12.9761C61.0612 12.655 61.0735 12.3325 61.0555 12.0121C61.0433 11.7961 61.1 11.7239 61.3321 11.7253C63.6394 11.7346 65.9459 11.7339 68.2531 11.726C68.4665 11.7253 68.5211 11.7847 68.5211 11.9942C68.5139 14.5386 68.5168 17.0831 68.5168 19.6275C68.5161 21.7787 68.5161 23.9305 68.5161 26.0816ZM53.6057 17.3627C53.1178 17.3627 52.6335 17.4035 52.16 17.4871C49.6969 17.9227 47.7094 19.1362 46.2867 21.1894C44.9797 23.0752 44.5191 25.1763 44.8812 27.4411C45.2283 29.6129 46.2874 31.3958 47.9975 32.7688C49.7191 34.1519 51.7045 34.7991 53.9312 34.7204C55.2159 34.6754 56.4339 34.38 57.5713 33.8072C59.4057 32.884 60.7781 31.4959 61.639 29.6258C62.2274 28.3479 62.4847 27.0091 62.4078 25.6046C62.3223 24.0392 61.8638 22.5896 60.9714 21.3002C59.1988 18.7372 56.7091 17.4736 53.6057 17.3627Z" fill="#345AA6"/>
<path d="M104.62 27.6563C100.813 27.6563 97.0068 27.6563 93.1999 27.6563C92.8558 27.6563 92.8543 27.6571 92.9255 27.9939C93.4644 30.539 94.8583 32.4985 97.0815 33.8451C98.3246 34.5981 99.6984 34.975 101.171 34.9865C103.791 35.0072 105.93 33.9817 107.668 32.0716C108.052 31.6489 108.384 31.1805 108.663 30.6806C108.733 30.5562 108.809 30.5219 108.943 30.5462C110.508 30.8251 112.073 31.1018 113.638 31.3772C114.086 31.4558 114.534 31.5366 114.983 31.6053C115.347 31.6611 115.355 31.6575 115.21 31.98C114.672 33.1736 113.995 34.2849 113.17 35.3033C112.12 36.5976 110.887 37.6925 109.473 38.58C107.671 39.7113 105.722 40.4579 103.611 40.7898C102.312 40.9936 101.01 41.0622 99.7034 40.9392C96.669 40.6532 93.9293 39.6055 91.5171 37.7426C89.8235 36.4346 88.4691 34.8413 87.4545 32.9583C86.6634 31.4909 86.136 29.9362 85.8838 28.2949C85.6884 27.0242 85.6654 25.7491 85.8055 24.4633C86.1353 21.4354 87.3281 18.7865 89.2854 16.4702C90.4796 15.0571 91.9159 13.9294 93.5391 13.0319C95.0825 12.1787 96.7244 11.6087 98.4618 11.3213C99.8522 11.091 101.25 11.0495 102.659 11.1875C104.681 11.3863 106.588 11.9499 108.383 12.8874C109.512 13.4781 110.551 14.2033 111.505 15.0528C113.042 16.423 114.238 18.0414 115.11 19.8986C115.727 21.2137 116.126 22.5918 116.325 24.032C116.476 25.114 116.509 26.1946 116.426 27.2816C116.398 27.6485 116.391 27.657 116.013 27.657C112.215 27.6563 108.417 27.6563 104.62 27.6563ZM101.295 22.8735C103.862 22.8735 106.43 22.8714 108.997 22.8771C109.233 22.8778 109.271 22.8306 109.175 22.6075C108.564 21.1851 107.663 19.9872 106.434 19.0347C105.011 17.9305 103.391 17.3405 101.597 17.2697C100.035 17.2082 98.561 17.5751 97.1979 18.3525C95.4655 19.3408 94.2289 20.7653 93.4414 22.5832C93.3228 22.8564 93.3386 22.8735 93.6469 22.8735C96.1963 22.8742 98.7456 22.8735 101.295 22.8735Z" fill="#345AA6"/>
<path d="M119.968 31.7791C119.968 29.0473 119.946 26.3155 119.975 23.5844C119.993 22.0082 120.333 20.4786 120.876 18.9989C121.759 16.5932 123.157 14.5258 125.065 12.8045C126.501 11.5094 128.127 10.5175 129.939 9.83022C130.784 9.50984 131.651 9.26741 132.54 9.09721C132.705 9.06574 132.752 9.09864 132.778 9.25597C132.96 10.3151 133.151 11.3728 133.339 12.4312C133.546 13.6033 133.75 14.7754 133.961 15.9468C134.032 16.3422 134.042 16.3401 133.638 16.413C130.571 16.9673 128.135 19.3722 127.571 22.3965C127.468 22.9501 127.417 23.5071 127.417 24.0671C127.413 29.4234 127.412 34.7791 127.422 40.1354C127.422 40.41 127.351 40.4694 127.083 40.468C124.804 40.4565 122.524 40.458 120.244 40.4665C120.023 40.4672 119.961 40.4115 119.962 40.1883C119.97 37.385 119.968 34.5817 119.968 31.7791Z" fill="#345BA6"/>
<path d="M73.6961 26.0809C73.6961 21.4032 73.6982 16.7255 73.6903 12.0486C73.6896 11.7968 73.7406 11.7217 74.0086 11.7232C76.4136 11.7346 78.8193 11.7325 81.2242 11.7253C81.447 11.7246 81.5275 11.7582 81.5275 12.0106C81.5196 21.4018 81.5203 30.7922 81.5253 40.1833C81.5253 40.3993 81.4779 40.4679 81.2487 40.4672C78.8257 40.4587 76.4021 40.4572 73.9792 40.4687C73.7277 40.4701 73.691 40.3907 73.691 40.1676C73.6982 35.472 73.6961 30.7765 73.6961 26.0809Z" fill="#345BA6"/>
<path d="M73.2656 4.33729C73.2312 1.96162 75.2078 -0.016442 77.643 0.000721209C80.0343 0.0171693 81.9707 1.90154 81.9779 4.33085C81.9844 6.75015 80.0292 8.67242 77.5955 8.66599C75.1108 8.65883 73.2297 6.6157 73.2656 4.33729Z" fill="#345BA6"/>
</g>
<defs>
<clipPath id="clip0">
<rect width="134" height="41" fill="white"/>
</clipPath>
</defs>
</svg>
